<svg xmlns="http://www.w3.org/2000/svg" viewBox="0 0 640 640">
  <path d="M96 528C96 510.3 110.3 496 128 496L128 192C128 174.3 142.3 160 160 160C177.7 160 192 174.3 192 192L192 496L256 496L256 288C256 270.3 270.3 256 288 256C305.7 256 320 270.3 320 288L320 496L384 496L384 352C384 334.3 398.3 320 416 320C433.7 320 448 334.3 448 352L448 496L512 496L512 128C512 110.3 526.3 96 544 96C561.7 96 576 110.3 576 128L576 496C593.7 496 608 510.3 608 528C608 545.7 593.7 560 576 560L128 560C110.3 560 96 545.7 96 528z"/>
</svg>
