<svg xmlns="http://www.w3.org/2000/svg" viewBox="0 0 640 640">
  <path d="M128 112C128 85.5 149.5 64 176 64L464 64C490.5 64 512 85.5 512 112L512 528C512 554.5 490.5 576 464 576L176 576C149.5 576 128 554.5 128 528L128 112zM208 192C190.3 192 176 206.3 176 224C176 241.7 190.3 256 208 256L432 256C449.7 256 464 241.7 464 224C464 206.3 449.7 192 432 192L208 192zM224 336C206.3 336 192 350.3 192 368L192 464C192 481.7 206.3 496 224 496L320 496C337.7 496 352 481.7 352 464L352 368C352 350.3 337.7 336 320 336L224 336zM416 336C398.3 336 384 350.3 384 368C384 385.7 398.3 400 416 400L432 400C449.7 400 464 385.7 464 368C464 350.3 449.7 336 432 336L416 336zM416 432C398.3 432 384 446.3 384 464C384 481.7 398.3 496 416 496L432 496C449.7 496 464 481.7 464 464C464 446.3 449.7 432 432 432L416 432z"/>
</svg>
