<svg xmlns="http://www.w3.org/2000/svg" viewBox="0 0 640 640">
  <path d="M160 80C142.3 80 128 94.3 128 112L128 528C128 545.7 142.3 560 160 560L480 560C497.7 560 512 545.7 512 528L512 208L384 80L160 80zM384 80L384 176C384 193.7 398.3 208 416 208L512 208L384 80zM208 288C190.3 288 176 302.3 176 320C176 337.7 190.3 352 208 352L432 352C449.7 352 464 337.7 464 320C464 302.3 449.7 288 432 288L208 288zM208 384C190.3 384 176 398.3 176 416C176 433.7 190.3 448 208 448L368 448C385.7 448 400 433.7 400 416C400 398.3 385.7 384 368 384L208 384z"/>
</svg>
