<svg xmlns="http://www.w3.org/2000/svg" viewBox="0 0 640 640">
  <path d="M320 64C337.3 64 353.8 71.2 365.4 83.8L530.8 263.8C550 285.7 538.8 320 509.4 320L464 320L464 480C464 533 421 576 368 576L272 576C219 576 176 533 176 480L176 320L130.6 320C101.2 320 90 285.7 109.2 263.8L274.6 83.8C286.2 71.2 302.7 64 320 64zM320 438.6L396.7 355.1C406 345.1 404.1 329.9 392.4 322.4C380.7 314.9 365.1 317.8 354.1 329.3L320 366.4L285.9 329.3C274.9 317.8 259.3 314.9 247.6 322.4C235.9 329.9 234 345.1 243.3 355.1L320 438.6z"/>
</svg>
